<svg width="54" height="47" viewBox="0 0 54 47" fill="none" xmlns="http://www.w3.org/2000/svg">
<path d="M40.6959 34.5491L48.4949 34.5593C48.7051 25.9801 45.7475 17.744 40.7263 11.7776L34.795 17.4421C38.4391 21.8771 40.8071 28.2465 40.6959 34.5491Z" fill="#007B70"/>
<path d="M27.5239 24.0766L33.3538 18.9107C36.6327 23.0468 38.5313 28.6393 38.3543 34.433L30.8466 34.433C30.8905 30.8482 30.2312 26.733 27.5239 24.0766Z" fill="#AFF022"/>
<path d="M17.1389 8.21451L17.1389 0.39231C25.1231 0.434229 34.0848 5.27893 39.5077 10.4658L33.7543 15.9146C29.2923 10.7101 22.8923 8.99903 17.1389 8.21451Z" fill="#AFF022"/>
<path d="M26.9125 22.7441C24.4774 20.5416 20.7679 18.6356 17.3011 18.4937L17.2714 10.4646C22.8773 10.5743 28.7256 13.8644 32.574 17.4886L26.9125 22.7441Z" fill="#007B70"/>
<path d="M14.7977 32.29L5.88867 46.9334H23.7067L14.7977 32.29Z" fill="white"/>
<path d="M6.42179 36.2005C6.96179 36.4973 7.53462 36.7367 8.12991 36.9143L16.4718 23.2103C16.0125 22.809 15.5074 22.4577 14.9658 22.163C13.9939 21.6139 12.9168 21.2534 11.797 21.1026C10.6772 20.9518 9.53692 21.0136 8.44247 21.2845C7.34803 21.5553 6.32119 22.0298 5.42158 22.6804C4.52198 23.331 3.76754 24.1447 3.20208 25.0742C2.63661 26.0038 2.27139 27.0307 2.12762 28.0954C1.98384 29.16 2.06439 30.2411 2.36457 31.276C2.66475 32.3108 3.17859 33.2788 3.87625 34.1236C4.5739 34.9684 5.44148 35.6733 6.42859 36.1973L6.42179 36.2005Z" fill="white"/>
<path d="M2.76799 45.7265L11.0386 32.1224C9.19717 31.5673 7.21118 31.6259 5.40966 32.2885C3.60814 32.9511 2.09922 34.1778 1.13289 35.7655C1.05818 35.8896 0.985166 36.0152 0.917249 36.1409C0.0779569 37.7107 -0.195506 39.4985 0.1388 41.23C0.473107 42.9614 1.39672 44.541 2.76799 45.7265Z" fill="white"/>
<path d="M21.5997 34.3539C24.0809 34.3539 26.0924 32.4451 26.0924 30.0904C26.0924 27.7358 24.0809 25.827 21.5997 25.827C19.1184 25.827 17.1069 27.7358 17.1069 30.0904C17.1069 32.4451 19.1184 34.3539 21.5997 34.3539Z" fill="white"/>
</svg>
