<svg width="164" height="80" viewBox="0 0 164 80" fill="none" xmlns="http://www.w3.org/2000/svg">
<path d="M31.3 49V48.898L33.352 45.442H31.48V44.68H34.78V44.782L32.74 48.232H34.72V49H31.3ZM37.2561 49.09C36.9081 49.09 36.6021 49.02 36.3381 48.88C36.0741 48.738 35.8681 48.539 35.7201 48.283C35.5721 48.027 35.4981 47.726 35.4981 47.38V44.686L36.3261 44.68V47.374C36.3261 47.516 36.3501 47.645 36.3981 47.761C36.4461 47.877 36.5121 47.977 36.5961 48.061C36.6821 48.145 36.7811 48.21 36.8931 48.256C37.0071 48.3 37.1281 48.322 37.2561 48.322C37.3881 48.322 37.5101 48.299 37.6221 48.253C37.7361 48.207 37.8351 48.142 37.9191 48.058C38.0031 47.974 38.0681 47.874 38.1141 47.758C38.1621 47.642 38.1861 47.514 38.1861 47.374V44.68H39.0141V47.38C39.0141 47.726 38.9401 48.027 38.7921 48.283C38.6441 48.539 38.4381 48.738 38.1741 48.88C37.9101 49.02 37.6041 49.09 37.2561 49.09ZM39.8516 49V44.68H41.6756C41.7176 44.68 41.7736 44.682 41.8436 44.686C41.9156 44.688 41.9796 44.694 42.0356 44.704C42.2936 44.744 42.5046 44.829 42.6686 44.959C42.8346 45.089 42.9566 45.253 43.0346 45.451C43.1126 45.647 43.1516 45.866 43.1516 46.108C43.1516 46.47 43.0616 46.78 42.8816 47.038C42.7016 47.294 42.4196 47.452 42.0356 47.512L41.6756 47.536H40.6676V49H39.8516ZM42.2876 49L41.4356 47.242L42.2756 47.08L43.2116 49H42.2876ZM40.6676 46.774H41.6396C41.6816 46.774 41.7276 46.772 41.7776 46.768C41.8276 46.764 41.8736 46.756 41.9156 46.744C42.0256 46.714 42.1106 46.664 42.1706 46.594C42.2306 46.522 42.2716 46.443 42.2936 46.357C42.3176 46.269 42.3296 46.186 42.3296 46.108C42.3296 46.03 42.3176 45.948 42.2936 45.862C42.2716 45.774 42.2306 45.695 42.1706 45.625C42.1106 45.553 42.0256 45.502 41.9156 45.472C41.8736 45.46 41.8276 45.452 41.7776 45.448C41.7276 45.444 41.6816 45.442 41.6396 45.442H40.6676V46.774ZM43.9312 49V44.68H44.7472V49H43.9312Z" fill="#007B70"/>
<path d="M46.5477 49L47.8677 44.68H49.0857L50.4057 49H49.5657L48.3897 45.19H48.5457L47.3877 49H46.5477ZM47.3397 48.1V47.338H49.6197V48.1H47.3397ZM50.9434 49V44.68H52.7674C52.8094 44.68 52.8654 44.682 52.9354 44.686C53.0074 44.688 53.0714 44.694 53.1274 44.704C53.3854 44.744 53.5964 44.829 53.7604 44.959C53.9264 45.089 54.0484 45.253 54.1264 45.451C54.2044 45.647 54.2434 45.866 54.2434 46.108C54.2434 46.35 54.2034 46.57 54.1234 46.768C54.0454 46.964 53.9234 47.127 53.7574 47.257C53.5934 47.387 53.3834 47.472 53.1274 47.512C53.0714 47.52 53.0074 47.526 52.9354 47.53C52.8634 47.534 52.8074 47.536 52.7674 47.536H51.7594V49H50.9434ZM51.7594 46.774H52.7314C52.7734 46.774 52.8194 46.772 52.8694 46.768C52.9194 46.764 52.9654 46.756 53.0074 46.744C53.1174 46.714 53.2024 46.664 53.2624 46.594C53.3224 46.522 53.3634 46.443 53.3854 46.357C53.4094 46.269 53.4214 46.186 53.4214 46.108C53.4214 46.03 53.4094 45.948 53.3854 45.862C53.3634 45.774 53.3224 45.695 53.2624 45.625C53.2024 45.553 53.1174 45.502 53.0074 45.472C52.9654 45.46 52.9194 45.452 52.8694 45.448C52.8194 45.444 52.7734 45.442 52.7314 45.442H51.7594V46.774ZM54.9058 49V44.68H55.7218V49H54.9058Z" fill="#AFF022"/>
<path d="M45.6959 40.5491L53.4949 40.5593C53.7051 31.9801 50.7475 23.744 45.7263 17.7776L39.795 23.4421C43.4391 27.8771 45.8071 34.2465 45.6959 40.5491Z" fill="#007B70"/>
<path d="M32.5239 30.0766L38.3538 24.9107C41.6327 29.0468 43.5313 34.6393 43.3543 40.433L35.8466 40.433C35.8905 36.8482 35.2312 32.733 32.5239 30.0766Z" fill="#AFF022"/>
<path d="M22.1389 14.2145L22.1389 6.39231C30.1231 6.43423 39.0848 11.2789 44.5077 16.4658L38.7543 21.9146C34.2923 16.7101 27.8923 14.999 22.1389 14.2145Z" fill="#AFF022"/>
<path d="M31.9125 28.7441C29.4774 26.5416 25.7679 24.6356 22.3011 24.4937L22.2714 16.4646C27.8773 16.5743 33.7256 19.8644 37.574 23.4886L31.9125 28.7441Z" fill="#007B70"/>
<path d="M19.7977 38.29L10.8887 52.9334H28.7067L19.7977 38.29Z" fill="white"/>
<path d="M11.4218 42.2005C11.9618 42.4973 12.5346 42.7367 13.1299 42.9143L21.4718 29.2103C21.0125 28.809 20.5074 28.4577 19.9658 28.163C18.9939 27.6139 17.9168 27.2534 16.797 27.1026C15.6772 26.9518 14.5369 27.0136 13.4425 27.2845C12.348 27.5553 11.3212 28.0298 10.4216 28.6804C9.52198 29.331 8.76754 30.1447 8.20208 31.0742C7.63661 32.0038 7.27139 33.0307 7.12762 34.0954C6.98384 35.16 7.06439 36.2411 7.36457 37.276C7.66475 38.3108 8.17859 39.2788 8.87625 40.1236C9.5739 40.9684 10.4415 41.6733 11.4286 42.1973L11.4218 42.2005Z" fill="white"/>
<path d="M7.76799 51.7265L16.0386 38.1224C14.1972 37.5673 12.2112 37.6259 10.4097 38.2885C8.60814 38.9511 7.09922 40.1778 6.13289 41.7655C6.05818 41.8896 5.98517 42.0152 5.91725 42.1409C5.07796 43.7107 4.80449 45.4985 5.1388 47.23C5.47311 48.9614 6.39672 50.541 7.76799 51.7265Z" fill="white"/>
<path d="M26.5997 40.3539C29.0809 40.3539 31.0924 38.4451 31.0924 36.0904C31.0924 33.7358 29.0809 31.827 26.5997 31.827C24.1184 31.827 22.1069 33.7358 22.1069 36.0904C22.1069 38.4451 24.1184 40.3539 26.5997 40.3539Z" fill="white"/>
<path d="M66.2 39V38.604L74.72 24.432H66.8V21.72H79.724V22.128L71.252 36.276H79.52V39H66.2ZM89.5541 39.36C88.1781 39.36 86.9661 39.08 85.9181 38.52C84.8781 37.96 84.0621 37.172 83.4701 36.156C82.8861 35.14 82.5941 33.948 82.5941 32.58V21.744L85.5221 21.72V32.508C85.5221 33.156 85.6301 33.736 85.8461 34.248C86.0701 34.76 86.3701 35.196 86.7461 35.556C87.1221 35.908 87.5541 36.176 88.0421 36.36C88.5301 36.544 89.0341 36.636 89.5541 36.636C90.0901 36.636 90.5981 36.544 91.0781 36.36C91.5661 36.168 91.9981 35.896 92.3741 35.544C92.7501 35.184 93.0461 34.748 93.2621 34.236C93.4781 33.724 93.5861 33.148 93.5861 32.508V21.72H96.5141V32.58C96.5141 33.948 96.2181 35.14 95.6261 36.156C95.0421 37.172 94.2261 37.96 93.1781 38.52C92.1381 39.08 90.9301 39.36 89.5541 39.36ZM99.8675 39V21.72H107.008C107.176 21.72 107.392 21.728 107.656 21.744C107.92 21.752 108.164 21.776 108.388 21.816C109.388 21.968 110.212 22.3 110.859 22.812C111.516 23.324 112 23.972 112.312 24.756C112.632 25.532 112.792 26.396 112.792 27.348C112.792 28.756 112.436 29.968 111.724 30.984C111.012 31.992 109.92 32.616 108.448 32.856L107.212 32.964H102.76V39H99.8675ZM109.792 39L106.384 31.968L109.324 31.32L113.068 39H109.792ZM102.76 30.264H106.888C107.048 30.264 107.228 30.256 107.428 30.24C107.628 30.224 107.812 30.192 107.98 30.144C108.46 30.024 108.836 29.812 109.108 29.508C109.388 29.204 109.584 28.86 109.696 28.476C109.816 28.092 109.876 27.716 109.876 27.348C109.876 26.98 109.816 26.604 109.696 26.22C109.584 25.828 109.388 25.48 109.108 25.176C108.836 24.872 108.46 24.66 107.98 24.54C107.812 24.492 107.628 24.464 107.428 24.456C107.228 24.44 107.048 24.432 106.888 24.432H102.76V30.264ZM115.951 39V21.72H118.843V39H115.951ZM126.043 39L131.491 21.72H135.727L141.175 39H138.199L133.255 23.496H133.903L129.019 39H126.043ZM129.079 35.256V32.556H138.151V35.256H129.079ZM143.344 39V21.72H150.484C150.652 21.72 150.868 21.728 151.132 21.744C151.396 21.752 151.64 21.776 151.864 21.816C152.864 21.968 153.688 22.3 154.336 22.812C154.992 23.324 155.476 23.972 155.788 24.756C156.108 25.532 156.268 26.396 156.268 27.348C156.268 28.292 156.108 29.156 155.788 29.94C155.468 30.716 154.98 31.36 154.324 31.872C153.676 32.384 152.856 32.716 151.864 32.868C151.64 32.9 151.392 32.924 151.12 32.94C150.856 32.956 150.644 32.964 150.484 32.964H146.236V39H143.344ZM146.236 30.264H150.364C150.524 30.264 150.704 30.256 150.904 30.24C151.104 30.224 151.288 30.192 151.456 30.144C151.936 30.024 152.312 29.812 152.584 29.508C152.864 29.204 153.06 28.86 153.172 28.476C153.292 28.092 153.352 27.716 153.352 27.348C153.352 26.98 153.292 26.604 153.172 26.22C153.06 25.828 152.864 25.48 152.584 25.176C152.312 24.872 151.936 24.66 151.456 24.54C151.288 24.492 151.104 24.464 150.904 24.456C150.704 24.44 150.524 24.432 150.364 24.432H146.236V30.264ZM158.912 39V21.72H161.804V39H158.912Z" fill="white"/>
</svg>
